<?xml version="1.0" encoding="UTF-8"?>
<svg xmlns="http://www.w3.org/2000/svg" version="1.1" width="200" height="200" viewBox="0 0 200 200"><rect x="0" y="0" width="200" height="200" fill="#ffffff"/><g transform="scale(8)"><g transform="translate(0,0)"><path fill-rule="evenodd" d="M8 0L8 1L9 1L9 2L10 2L10 3L11 3L11 1L13 1L13 2L12 2L12 4L11 4L11 5L10 5L10 4L9 4L9 5L10 5L10 8L9 8L9 6L8 6L8 8L9 8L9 9L8 9L8 10L10 10L10 11L9 11L9 14L8 14L8 13L7 13L7 12L6 12L6 13L5 13L5 14L4 14L4 12L5 12L5 11L7 11L7 10L5 10L5 8L3 8L3 9L2 9L2 8L0 8L0 10L3 10L3 13L1 13L1 11L0 11L0 17L1 17L1 15L2 15L2 14L4 14L4 15L3 15L3 16L2 16L2 17L4 17L4 16L5 16L5 17L8 17L8 18L10 18L10 20L8 20L8 22L9 22L9 21L11 21L11 22L10 22L10 23L11 23L11 24L10 24L10 25L11 25L11 24L12 24L12 25L13 25L13 24L12 24L12 22L13 22L13 23L14 23L14 24L16 24L16 25L18 25L18 24L16 24L16 21L18 21L18 22L17 22L17 23L18 23L18 22L19 22L19 21L21 21L21 16L22 16L22 18L24 18L24 19L23 19L23 20L25 20L25 18L24 18L24 16L25 16L25 14L24 14L24 13L25 13L25 10L24 10L24 9L25 9L25 8L24 8L24 9L19 9L19 8L18 8L18 9L17 9L17 1L16 1L16 7L15 7L15 6L14 6L14 5L12 5L12 4L14 4L14 3L15 3L15 0L11 0L11 1L9 1L9 0ZM11 5L11 7L12 7L12 9L10 9L10 10L12 10L12 11L13 11L13 13L11 13L11 12L10 12L10 15L9 15L9 16L8 16L8 17L10 17L10 18L11 18L11 17L12 17L12 16L14 16L14 17L13 17L13 18L12 18L12 20L13 20L13 21L14 21L14 20L15 20L15 19L16 19L16 16L14 16L14 11L15 11L15 13L16 13L16 11L15 11L15 10L14 10L14 8L13 8L13 7L14 7L14 6L13 6L13 7L12 7L12 5ZM6 8L6 9L7 9L7 8ZM15 8L15 9L16 9L16 10L17 10L17 13L18 13L18 14L19 14L19 15L18 15L18 16L19 16L19 15L20 15L20 16L21 16L21 15L20 15L20 13L21 13L21 14L23 14L23 13L24 13L24 12L21 12L21 10L20 10L20 12L19 12L19 11L18 11L18 10L19 10L19 9L18 9L18 10L17 10L17 9L16 9L16 8ZM3 9L3 10L4 10L4 11L5 11L5 10L4 10L4 9ZM12 9L12 10L13 10L13 9ZM22 10L22 11L24 11L24 10ZM18 12L18 13L19 13L19 12ZM6 13L6 14L7 14L7 15L5 15L5 16L7 16L7 15L8 15L8 14L7 14L7 13ZM11 14L11 15L10 15L10 17L11 17L11 16L12 16L12 15L13 15L13 14ZM16 14L16 15L17 15L17 14ZM23 15L23 16L24 16L24 15ZM17 17L17 20L20 20L20 17ZM14 18L14 19L13 19L13 20L14 20L14 19L15 19L15 18ZM18 18L18 19L19 19L19 18ZM23 21L23 22L20 22L20 23L19 23L19 24L21 24L21 25L22 25L22 24L24 24L24 25L25 25L25 21ZM14 22L14 23L15 23L15 22ZM8 23L8 25L9 25L9 23ZM21 23L21 24L22 24L22 23ZM0 0L0 7L7 7L7 0ZM1 1L1 6L6 6L6 1ZM2 2L2 5L5 5L5 2ZM18 0L18 7L25 7L25 0ZM19 1L19 6L24 6L24 1ZM20 2L20 5L23 5L23 2ZM0 18L0 25L7 25L7 18ZM1 19L1 24L6 24L6 19ZM2 20L2 23L5 23L5 20Z" fill="#000000"/></g></g></svg>
