<?xml version="1.0" encoding="UTF-8"?>
<svg xmlns="http://www.w3.org/2000/svg" version="1.1" width="200" height="200" viewBox="0 0 200 200"><rect x="0" y="0" width="200" height="200" fill="#ffffff"/><g transform="scale(6.897)"><g transform="translate(0,0)"><path fill-rule="evenodd" d="M9 0L9 1L8 1L8 3L9 3L9 4L8 4L8 8L6 8L6 9L8 9L8 8L10 8L10 10L9 10L9 11L11 11L11 10L12 10L12 9L13 9L13 11L12 11L12 12L11 12L11 13L10 13L10 14L11 14L11 15L10 15L10 16L9 16L9 14L8 14L8 13L7 13L7 12L6 12L6 11L8 11L8 10L5 10L5 9L4 9L4 8L3 8L3 9L2 9L2 8L0 8L0 11L2 11L2 12L0 12L0 13L3 13L3 14L2 14L2 15L0 15L0 17L2 17L2 18L3 18L3 19L2 19L2 20L3 20L3 21L5 21L5 20L6 20L6 21L8 21L8 23L9 23L9 21L8 21L8 20L6 20L6 19L7 19L7 18L6 18L6 17L8 17L8 18L9 18L9 17L10 17L10 16L12 16L12 17L11 17L11 18L10 18L10 19L9 19L9 20L10 20L10 21L12 21L12 22L13 22L13 25L12 25L12 26L11 26L11 23L10 23L10 24L9 24L9 25L8 25L8 26L9 26L9 27L8 27L8 29L9 29L9 28L11 28L11 29L13 29L13 28L14 28L14 27L15 27L15 29L16 29L16 28L17 28L17 29L19 29L19 28L20 28L20 29L21 29L21 26L24 26L24 29L26 29L26 28L25 28L25 27L27 27L27 29L28 29L28 27L29 27L29 26L28 26L28 27L27 27L27 26L25 26L25 25L26 25L26 24L28 24L28 25L29 25L29 24L28 24L28 22L29 22L29 21L27 21L27 20L29 20L29 17L28 17L28 15L29 15L29 14L27 14L27 13L29 13L29 12L28 12L28 10L29 10L29 9L28 9L28 8L26 8L26 9L25 9L25 8L22 8L22 9L20 9L20 10L19 10L19 11L20 11L20 10L21 10L21 12L19 12L19 14L16 14L16 15L15 15L15 14L14 14L14 9L15 9L15 8L19 8L19 6L20 6L20 7L21 7L21 6L20 6L20 5L19 5L19 4L21 4L21 1L20 1L20 0L19 0L19 1L16 1L16 0L14 0L14 1L15 1L15 2L14 2L14 4L13 4L13 6L12 6L12 5L11 5L11 6L10 6L10 5L9 5L9 4L12 4L12 3L13 3L13 0L12 0L12 1L11 1L11 2L9 2L9 1L10 1L10 0ZM19 1L19 3L17 3L17 2L15 2L15 3L17 3L17 4L19 4L19 3L20 3L20 1ZM14 4L14 6L13 6L13 8L15 8L15 7L16 7L16 6L17 6L17 7L18 7L18 5L16 5L16 6L15 6L15 4ZM9 6L9 7L10 7L10 8L11 8L11 9L12 9L12 6L11 6L11 7L10 7L10 6ZM14 6L14 7L15 7L15 6ZM16 9L16 11L15 11L15 12L17 12L17 13L18 13L18 12L17 12L17 11L18 11L18 10L17 10L17 9ZM23 9L23 10L22 10L22 11L23 11L23 10L25 10L25 9ZM26 9L26 10L28 10L28 9ZM3 10L3 11L4 11L4 14L3 14L3 15L2 15L2 17L3 17L3 18L4 18L4 20L5 20L5 16L8 16L8 17L9 17L9 16L8 16L8 15L4 15L4 14L7 14L7 13L5 13L5 10ZM24 11L24 12L23 12L23 13L22 13L22 14L23 14L23 15L21 15L21 13L20 13L20 14L19 14L19 15L21 15L21 16L20 16L20 17L19 17L19 16L18 16L18 18L16 18L16 17L17 17L17 16L16 16L16 17L15 17L15 18L14 18L14 16L13 16L13 15L14 15L14 14L12 14L12 13L11 13L11 14L12 14L12 16L13 16L13 18L11 18L11 19L10 19L10 20L11 20L11 19L13 19L13 20L12 20L12 21L13 21L13 20L14 20L14 19L15 19L15 20L17 20L17 22L16 22L16 21L14 21L14 22L15 22L15 23L14 23L14 26L12 26L12 28L13 28L13 27L14 27L14 26L15 26L15 27L17 27L17 26L18 26L18 28L19 28L19 26L20 26L20 22L19 22L19 21L20 21L20 19L22 19L22 20L23 20L23 19L24 19L24 18L26 18L26 19L25 19L25 24L26 24L26 23L27 23L27 22L26 22L26 20L27 20L27 18L28 18L28 17L27 17L27 15L26 15L26 13L27 13L27 12L26 12L26 13L25 13L25 11ZM24 14L24 15L23 15L23 16L24 16L24 15L25 15L25 17L26 17L26 15L25 15L25 14ZM3 16L3 17L4 17L4 16ZM21 16L21 17L22 17L22 19L23 19L23 18L24 18L24 17L22 17L22 16ZM0 18L0 19L1 19L1 18ZM18 18L18 19L17 19L17 20L18 20L18 19L19 19L19 18ZM0 20L0 21L1 21L1 20ZM21 21L21 24L24 24L24 21ZM18 22L18 24L17 24L17 23L16 23L16 24L17 24L17 25L18 25L18 24L19 24L19 22ZM22 22L22 23L23 23L23 22ZM9 25L9 26L10 26L10 25ZM22 27L22 29L23 29L23 27ZM0 0L0 7L7 7L7 0ZM1 1L1 6L6 6L6 1ZM2 2L2 5L5 5L5 2ZM22 0L22 7L29 7L29 0ZM23 1L23 6L28 6L28 1ZM24 2L24 5L27 5L27 2ZM0 22L0 29L7 29L7 22ZM1 23L1 28L6 28L6 23ZM2 24L2 27L5 27L5 24Z" fill="#000000"/></g></g></svg>
