<?xml version="1.0" encoding="UTF-8"?>
<svg xmlns="http://www.w3.org/2000/svg" version="1.1" width="200" height="200" viewBox="0 0 200 200"><rect x="0" y="0" width="200" height="200" fill="#ffffff"/><g transform="scale(8)"><g transform="translate(0,0)"><path fill-rule="evenodd" d="M10 0L10 2L11 2L11 0ZM12 0L12 1L13 1L13 2L12 2L12 4L13 4L13 5L11 5L11 6L10 6L10 4L11 4L11 3L8 3L8 4L9 4L9 5L8 5L8 7L9 7L9 8L6 8L6 9L8 9L8 10L5 10L5 11L4 11L4 9L5 9L5 8L0 8L0 10L1 10L1 11L0 11L0 12L1 12L1 13L0 13L0 17L1 17L1 13L2 13L2 14L3 14L3 15L2 15L2 17L3 17L3 16L4 16L4 17L5 17L5 15L7 15L7 14L6 14L6 13L8 13L8 14L10 14L10 15L11 15L11 16L9 16L9 17L8 17L8 16L6 16L6 17L8 17L8 19L9 19L9 20L8 20L8 25L9 25L9 24L10 24L10 25L12 25L12 23L13 23L13 22L11 22L11 21L10 21L10 20L11 20L11 19L9 19L9 18L10 18L10 17L12 17L12 18L13 18L13 19L12 19L12 21L13 21L13 20L14 20L14 21L15 21L15 23L14 23L14 24L17 24L17 25L25 25L25 18L22 18L22 17L23 17L23 16L22 16L22 17L21 17L21 15L22 15L22 13L23 13L23 15L24 15L24 16L25 16L25 14L24 14L24 13L25 13L25 10L24 10L24 8L23 8L23 11L24 11L24 12L22 12L22 13L21 13L21 12L20 12L20 11L22 11L22 10L20 10L20 8L19 8L19 10L18 10L18 11L17 11L17 9L18 9L18 8L17 8L17 9L16 9L16 10L14 10L14 9L15 9L15 6L16 6L16 7L17 7L17 5L14 5L14 4L15 4L15 2L16 2L16 3L17 3L17 2L16 2L16 1L17 1L17 0L16 0L16 1L15 1L15 2L14 2L14 1L13 1L13 0ZM8 1L8 2L9 2L9 1ZM13 2L13 3L14 3L14 2ZM9 6L9 7L10 7L10 6ZM11 6L11 7L12 7L12 9L11 9L11 8L10 8L10 9L9 9L9 12L8 12L8 13L9 13L9 12L11 12L11 13L10 13L10 14L13 14L13 13L12 13L12 11L13 11L13 12L14 12L14 14L16 14L16 13L17 13L17 15L18 15L18 16L19 16L19 15L18 15L18 14L19 14L19 13L20 13L20 14L21 14L21 13L20 13L20 12L19 12L19 13L17 13L17 12L16 12L16 11L15 11L15 12L14 12L14 10L12 10L12 9L13 9L13 8L14 8L14 6L13 6L13 7L12 7L12 6ZM21 8L21 9L22 9L22 8ZM2 9L2 12L3 12L3 13L4 13L4 12L3 12L3 9ZM10 9L10 11L11 11L11 9ZM19 10L19 11L20 11L20 10ZM5 11L5 12L7 12L7 11ZM4 14L4 15L5 15L5 14ZM12 15L12 17L14 17L14 18L15 18L15 19L14 19L14 20L16 20L16 18L15 18L15 17L16 17L16 15L15 15L15 16L14 16L14 15ZM17 17L17 20L20 20L20 17ZM18 18L18 19L19 19L19 18ZM21 18L21 19L22 19L22 20L21 20L21 21L22 21L22 20L23 20L23 19L22 19L22 18ZM19 21L19 22L16 22L16 23L21 23L21 22L20 22L20 21ZM9 22L9 23L10 23L10 24L11 24L11 23L10 23L10 22ZM23 22L23 23L22 23L22 24L24 24L24 22ZM0 0L0 7L7 7L7 0ZM1 1L1 6L6 6L6 1ZM2 2L2 5L5 5L5 2ZM18 0L18 7L25 7L25 0ZM19 1L19 6L24 6L24 1ZM20 2L20 5L23 5L23 2ZM0 18L0 25L7 25L7 18ZM1 19L1 24L6 24L6 19ZM2 20L2 23L5 23L5 20Z" fill="#000000"/></g></g></svg>
